<svg width="170" height="70" viewBox="0 0 170 70" fill="none" xmlns="http://www.w3.org/2000/svg">
<g clip-path="url(#clip0)">
<path d="M170 0H0V70H170V0Z" fill="#E5E5E5"/>
<path d="M170 0H0V70H170V0Z" fill="url(#paint0_linear)"/>
<path d="M168.604 0H0V70H168.604V0Z" fill="white"/>
<g filter="url(#filter0_d)">
<path d="M170.734 70H0V0H170.734V70Z" fill="#F5F5F5"/>
<path d="M104.597 34.7992V69.5484H108.252H111.907V34.7992V0.0500031H108.252H104.597V34.7992Z" fill="black" stroke="black"/>
<path d="M24.9703 38.676V38.6954L24.9571 38.7097L23.1835 40.639C21.6109 42.4609 19.6558 42.9326 17.9832 42.3009C16.3126 41.6699 14.9377 39.9435 14.5098 37.3977L14.5097 37.3969L14.0903 34.6252H7.10825C7.03055 34.6252 6.95362 34.6252 6.87744 34.6252C4.9691 34.625 3.53346 34.6249 2.48123 34.7405C1.38487 34.861 0.722146 35.1058 0.372124 35.5894C0.021298 36.0742 -0.0269698 36.8144 0.15258 37.9597C0.323745 39.0516 0.69904 40.4967 1.19664 42.4128C1.21983 42.5021 1.24329 42.5924 1.26701 42.6838C2.39996 46.9763 4.45169 50.0599 7.61427 52.0619C10.7784 54.0648 15.0606 54.9889 20.6618 54.9487H20.6622C24.208 54.9487 26.8452 54.6473 29.0198 53.9261C31.1933 53.2053 32.9077 52.0642 34.6064 50.3801L34.6065 50.38C35.8302 49.1743 36.762 48.1729 37.4737 46.9852C38.1851 45.7981 38.6779 44.4223 39.0186 42.4667C39.7007 38.5522 39.7718 32.326 39.7718 20.6647V0.0500031H32.3711H24.9703V19.2978V38.676Z" fill="black" stroke="black"/>
<path d="M77.0483 57.7187L77.048 57.7186L65.6461 57.4903L65.5973 57.4893L65.5968 57.4408L65.3991 38.1826V38.1824L65.2676 19.05H58.3973H51.5273V44.5V69.95H69.9311H88.3348V63.9104V57.8702L77.0483 57.7187Z" fill="black" stroke="black"/>
<path d="M155.721 13.9634C155.34 18.1555 152.139 24.1006 150.31 24.1006C149.701 24.1006 148.786 23.186 148.253 22.1189C147.262 20.3658 140.709 14.9543 139.489 14.9543C139.185 14.9543 139.87 16.0213 140.937 17.3171C142.004 18.6128 142.919 20.1372 142.919 20.6707C142.919 21.2043 143.147 22.1951 143.375 22.8811C143.757 23.7957 143.147 23.7957 139.946 22.5C135.298 20.7469 126.152 20.5945 122.723 22.1951L120.437 23.186L122.723 23.2622C125.771 23.4146 130.725 25.7012 132.859 28.1402L134.688 30.0457L132.859 30.9604C130.268 32.3323 127.676 34.8475 126.381 37.2866L125.315 39.4969L127.448 37.9725C128.591 37.1341 130.725 36.2195 132.097 35.9146L134.688 35.3811L133.544 37.5915C130.573 43.3841 130.115 51.9207 132.401 57.561L133.392 60L133.544 56.6463C133.697 52.9116 135.754 48.186 138.194 45.9756C139.718 44.6036 139.794 44.6036 140.937 46.814C142.08 49.0244 147.186 53.8262 148.405 53.8262C148.71 53.8262 148.329 52.6829 147.491 51.311C145.662 48.3384 145.434 45.061 147.109 45.7469C155.112 48.7957 162.504 49.1006 168.067 46.6616L170.734 45.5183L166.542 45.4421C163.647 45.4421 161.437 44.9085 159.379 43.689C155.873 41.7073 154.197 39.3445 155.721 38.811C157.627 38.125 162.047 33.8567 163.19 31.6463L164.257 29.436L161.513 31.3415C158.16 33.628 155.417 33.9329 156.255 31.875C159.074 25.1677 159.379 17.6982 157.094 12.2866L156.103 9.99998L155.721 13.9634Z" fill="#EDC655"/>
</g>
<path d="M94.5595 10H46.2738V70H94.5595V10Z" fill="#F5F5F5"/>
<path d="M69.1019 4.67188V17.2812H77.4457V28.25H69.1019V51.4531C69.1019 53.3594 69.4457 54.6875 70.1332 55.4375C70.8207 56.1875 72.1801 56.5625 74.2113 56.5625C75.7738 56.5625 77.0863 56.4688 78.1488 56.2812V67.5781C75.3051 68.4844 72.3363 68.9375 69.2426 68.9375C63.8051 68.9375 59.7894 67.6562 57.1957 65.0938C54.6019 62.5312 53.3051 58.6406 53.3051 53.4219V28.25H46.8363V17.2812H53.3051V4.67188H69.1019Z" fill="black"/>
</g>
<defs>
<filter id="filter0_d" x="-4.44954" y="-0.449997" width="179.184" height="78.9" filterUnits="userSpaceOnUse" color-interpolation-filters="sRGB">
<feFlood flood-opacity="0" result="BackgroundImageFix"/>
<feColorMatrix in="SourceAlpha" type="matrix" values="0 0 0 0 0 0 0 0 0 0 0 0 0 0 0 0 0 0 127 0"/>
<feOffset dy="4"/>
<feGaussianBlur stdDeviation="2"/>
<feColorMatrix type="matrix" values="0 0 0 0 0 0 0 0 0 0 0 0 0 0 0 0 0 0 0.25 0"/>
<feBlend mode="normal" in2="BackgroundImageFix" result="effect1_dropShadow"/>
<feBlend mode="normal" in="SourceGraphic" in2="effect1_dropShadow" result="shape"/>
</filter>
<linearGradient id="paint0_linear" x1="84.5" y1="0" x2="84.5" y2="70" gradientUnits="userSpaceOnUse">
<stop stop-color="white"/>
<stop offset="1" stop-color="white" stop-opacity="0"/>
</linearGradient>
<clipPath id="clip0">
<rect width="170" height="70" fill="white"/>
</clipPath>
</defs>
</svg>
