<svg height="30" viewBox="0 0 33 33" fill="none" xmlns="http://www.w3.org/2000/svg">
<path d="M22.8154 0.75H10.8327C5.31896 0.75 0.875 5.21369 0.875 10.7256V22.7052C0.875 28.2175 5.31896 32.75 10.8327 32.75H22.8154C28.3292 32.75 32.875 28.2175 32.875 22.7052V10.7256C32.875 5.21369 28.3292 0.75 22.8154 0.75ZM29.86 22.7052C29.86 26.5582 26.6695 29.722 22.8154 29.722H10.8327C6.97837 29.722 3.82147 26.5582 3.82147 22.7052V10.7256C3.82147 6.87287 6.97837 3.70914 10.8327 3.70914H22.8154C26.6695 3.70914 29.86 6.87287 29.86 10.7256V22.7052Z" fill="url(#paint0_linear)"/>
<path d="M16.824 8.72925C12.4124 8.72925 8.83563 12.3051 8.83563 16.7158C8.83563 21.126 12.4124 24.7017 16.824 24.7017C21.2357 24.7017 24.8124 21.126 24.8124 16.7158C24.8124 12.3051 21.2357 8.72925 16.824 8.72925ZM16.824 21.7071C14.0719 21.7071 11.8315 19.467 11.8315 16.7158C11.8315 13.962 14.0719 11.7242 16.824 11.7242C19.576 11.7242 21.8167 13.9621 21.8167 16.7158C21.8167 19.467 19.576 21.7071 16.824 21.7071Z" fill="url(#paint1_linear)"/>
<path d="M25.4115 7.06592C24.8235 7.06592 24.3468 7.54241 24.3468 8.13004C24.3468 8.71774 24.8235 9.19444 25.4115 9.19444C25.9989 9.19444 26.4758 8.71774 26.4758 8.13004C26.4758 7.54241 25.9989 7.06592 25.4115 7.06592Z" fill="url(#paint2_linear)"/>
<defs>
<linearGradient id="paint0_linear" x1="3.81488" y1="29.8237" x2="29.9964" y2="3.75428" gradientUnits="userSpaceOnUse">
<stop stop-color="#FFC107"/>
<stop offset="0.2211" stop-color="#F98D1C"/>
<stop offset="0.5137" stop-color="#F1423B"/>
<stop offset="0.8329" stop-color="#B93088"/>
<stop offset="0.9944" stop-color="#9C27B0"/>
</linearGradient>
<linearGradient id="paint1_linear" x1="11.1884" y1="22.3756" x2="22.5082" y2="11.1043" gradientUnits="userSpaceOnUse">
<stop stop-color="#FFC107"/>
<stop offset="0.2211" stop-color="#F98D1C"/>
<stop offset="0.5137" stop-color="#F1423B"/>
<stop offset="0.8329" stop-color="#B93088"/>
<stop offset="0.9944" stop-color="#9C27B0"/>
</linearGradient>
<linearGradient id="paint2_linear" x1="24.6604" y1="8.88435" x2="26.1688" y2="7.38244" gradientUnits="userSpaceOnUse">
<stop stop-color="#FFC107"/>
<stop offset="0.2211" stop-color="#F98D1C"/>
<stop offset="0.5137" stop-color="#F1423B"/>
<stop offset="0.8329" stop-color="#B93088"/>
<stop offset="0.9944" stop-color="#9C27B0"/>
</linearGradient>
</defs>
</svg>
