<svg width="32" height="32" viewBox="0 0 32 32" fill="none" xmlns="http://www.w3.org/2000/svg">
<path d="M32 30C32 31.104 31.104 32 30 32H2C0.896 32 0 31.104 0 30V2C0 0.896 0.896 0 2 0H30C31.104 0 32 0.896 32 2V30Z" fill="#007BB5"/>
<path d="M20.499 12C17.708 12 17.228 13.018 17 14V12H13V26H17V18C17 16.703 17.703 16 19 16C20.266 16 21 16.688 21 18V26H25V19C25 15 24.479 12 20.499 12Z" fill="white"/>
<path d="M9 10C10.1046 10 11 9.10457 11 8C11 6.89543 10.1046 6 9 6C7.89543 6 7 6.89543 7 8C7 9.10457 7.89543 10 9 10Z" fill="white"/>
<path d="M11 12H7V26H11V12Z" fill="white"/>
</svg>
