<?xml version="1.0" encoding="UTF-8" standalone="no"?>
<svg
   xmlns:dc="http://purl.org/dc/elements/1.1/"
   xmlns:cc="http://creativecommons.org/ns#"
   xmlns:rdf="http://www.w3.org/1999/02/22-rdf-syntax-ns#"
   xmlns:svg="http://www.w3.org/2000/svg"
   xmlns="http://www.w3.org/2000/svg"
   id="svg474"
   preserveAspectRatio="xMidYMid meet"
   viewBox="0 0 530.000000 530.000000"
   height="530.000000pt"
   width="530.000000pt"
   version="1.0">
  <style
     id="style482"></style>
  <metadata
     id="metadata480">
    <rdf:RDF>
      <cc:Work
         rdf:about="">
        <dc:format>image/svg+xml</dc:format>
        <dc:type
           rdf:resource="http://purl.org/dc/dcmitype/StillImage" />
        <dc:title></dc:title>
      </cc:Work>
    </rdf:RDF>
  </metadata>
  <defs
     id="defs478" />
  <g
     transform="matrix(3.1228898,0,0,2.5542901,-556.78234,-177.48605)"
     id="g1381">
    <g
       transform="matrix(0.05,0,0,-0.05,130.20761,236.5744)"
       fill="#000000"
       stroke="none"
       id="g472">
      <path
         d="m 1000,2650 v -600 l 588,-2 c 323,-2 1065,-2 1650,0 l 1062,2 v 600 600 H 2650 1000 Z m 1150,0 v -550 h -550 -550 v 550 550 h 550 550 z m 790,67 c 0,-170 -2,-186 -22,-227 -33,-65 -87,-92 -183,-93 -125,-1 -198,53 -207,153 l -3,35 78,3 c 75,3 77,2 77,-21 0,-29 17,-47 45,-47 42,0 45,15 45,202 v 178 h 85 85 z m 260,3 v -179 l 128,-3 127,-3 v -65 -65 l -207,-3 -208,-2 v 250 250 h 80 80 z m 730,115 v -65 h -80 -80 l -2,-182 -3,-183 -77,-3 -78,-3 v 186 185 h -85 -85 v 65 65 h 245 245 z"
         id="path468" />
      <path
         d="m 1796,3020 c -9,-59 -46,-139 -80,-170 -26,-23 -28,-24 -38,-7 -25,46 -137,147 -162,147 -3,0 8,-21 24,-47 28,-46 48,-103 37,-103 -3,0 -27,10 -54,22 -64,29 -260,33 -308,6 l -30,-17 35,-1 c 60,-1 200,-79 200,-111 0,-4 -20,-19 -43,-33 -47,-27 -91,-77 -107,-123 l -10,-28 19,23 c 23,26 80,52 116,52 h 25 l -19,-38 c -42,-82 -52,-247 -21,-327 12,-30 12,-30 25,32 8,34 19,72 25,85 14,26 70,88 81,88 3,0 19,-20 34,-45 27,-42 88,-94 130,-109 18,-6 17,-5 -4,15 -27,26 -51,78 -51,113 v 25 l 67,-25 c 88,-33 212,-37 293,-9 l 55,19 -60,7 c -33,3 -78,14 -100,23 -43,18 -95,63 -94,80 0,6 21,25 47,41 45,29 95,90 106,129 4,15 0,14 -22,-7 -28,-27 -90,-57 -116,-57 -12,0 -9,12 12,58 24,51 27,69 27,162 0,75 -5,115 -16,140 l -16,35 z"
         id="path470" />
    </g>
  </g>
</svg>
