<svg width="168" height="70" viewBox="0 0 168 70" fill="none" xmlns="http://www.w3.org/2000/svg">
<g clip-path="url(#clip0)">
<rect width="167.606" height="70" fill="white"/>
<g filter="url(#filter0_d)">
<rect width="1697.24" height="700" transform="matrix(0.1 0 0 -0.1 0 70)" fill="#FFF5EE"/>
<path d="M103.978 34.7992V69.5484H107.611H111.245V34.7992V0.050002H107.611H103.978V34.7992Z" fill="black" stroke="black"/>
<path d="M24.8222 38.676V38.6954L24.8091 38.7097L23.046 40.639C21.4827 42.4609 19.5392 42.9326 17.8765 42.3009C16.2158 41.6699 14.849 39.9435 14.4236 37.3977L14.4235 37.3969L14.0066 34.6252H7.06588C6.98864 34.6252 6.91216 34.6252 6.83643 34.6252C4.93939 34.625 3.51224 34.6249 2.46624 34.7405C1.37636 34.861 0.717561 35.1058 0.36961 35.5894C0.0208601 36.0742 -0.0271221 36.8144 0.151365 37.9597C0.321517 39.0516 0.694592 40.4967 1.18925 42.4128C1.2123 42.5021 1.23562 42.5924 1.2592 42.6838C2.38545 46.9763 4.42504 50.0599 7.5689 52.0619C10.7143 54.0648 14.9712 54.9889 20.5392 54.9487H20.5396C24.0644 54.9487 26.686 54.6473 28.8478 53.9261C31.0084 53.2053 32.7127 52.0642 34.4013 50.3801L34.4014 50.38C35.6179 49.1743 36.5442 48.1729 37.2517 46.9852C37.9588 45.7981 38.4487 44.4223 38.7874 42.4667C39.4655 38.5522 39.5362 32.326 39.5362 20.6647V0.0500099H32.1792H24.8222V19.2978V38.676Z" fill="black" stroke="black"/>
<path d="M76.5924 57.7187L76.5921 57.7186L65.2576 57.4903L65.2091 57.4893L65.2086 57.4408L65.0121 38.1826L65.0121 38.1824L64.8814 19.05H58.0517H51.2224V44.5V69.95H69.5173H87.8121V63.9104V57.8702L76.5924 57.7187Z" fill="black" stroke="black"/>
<path d="M154.8 13.9634C154.421 18.1555 151.239 24.1006 149.421 24.1006C148.815 24.1006 147.906 23.186 147.376 22.1189C146.391 20.3658 139.876 14.9543 138.664 14.9543C138.361 14.9543 139.042 16.0213 140.103 17.3171C141.164 18.6128 142.073 20.1372 142.073 20.6707C142.073 21.2043 142.3 22.1951 142.527 22.8811C142.906 23.7957 142.3 23.7957 139.118 22.5C134.497 20.7469 125.406 20.5945 121.997 22.1951L119.724 23.186L121.997 23.2622C125.027 23.4146 129.951 25.7012 132.073 28.1402L133.891 30.0457L132.073 30.9604C129.497 32.3323 126.921 34.8475 125.633 37.2866L124.573 39.4969L126.694 37.9725C127.83 37.1341 129.951 36.2195 131.315 35.9146L133.891 35.3811L132.754 37.5915C129.8 43.3841 129.345 51.9207 131.618 57.561L132.603 60L132.754 56.6463C132.906 52.9116 134.951 48.186 137.376 45.9756C138.891 44.6036 138.967 44.6036 140.103 46.814C141.239 49.0244 146.315 53.8262 147.527 53.8262C147.83 53.8262 147.451 52.6829 146.618 51.311C144.8 48.3384 144.573 45.061 146.239 45.7469C154.194 48.7957 161.542 49.1006 167.073 46.6616L169.724 45.5183L165.557 45.4421C162.679 45.4421 160.482 44.9085 158.436 43.689C154.951 41.7073 153.285 39.3445 154.8 38.811C156.694 38.125 161.088 33.8567 162.224 31.6463L163.285 29.436L160.557 31.3415C157.224 33.628 154.497 33.9329 155.33 31.875C158.133 25.1677 158.436 17.6982 156.164 12.2866L155.179 9.99999L154.8 13.9634Z" fill="#EDC655"/>
</g>
</g>
<defs>
<filter id="filter0_d" x="-4" y="0" width="177.724" height="78" filterUnits="userSpaceOnUse" color-interpolation-filters="sRGB">
<feFlood flood-opacity="0" result="BackgroundImageFix"/>
<feColorMatrix in="SourceAlpha" type="matrix" values="0 0 0 0 0 0 0 0 0 0 0 0 0 0 0 0 0 0 127 0"/>
<feOffset dy="4"/>
<feGaussianBlur stdDeviation="2"/>
<feColorMatrix type="matrix" values="0 0 0 0 0 0 0 0 0 0 0 0 0 0 0 0 0 0 0.25 0"/>
<feBlend mode="normal" in2="BackgroundImageFix" result="effect1_dropShadow"/>
<feBlend mode="normal" in="SourceGraphic" in2="effect1_dropShadow" result="shape"/>
</filter>
<clipPath id="clip0">
<rect width="167.606" height="70" fill="white"/>
</clipPath>
</defs>
</svg>
