<?xml version="1.0" standalone="no"?>
<!DOCTYPE svg PUBLIC "-//W3C//DTD SVG 20010904//EN"
 "http://www.w3.org/TR/2001/REC-SVG-20010904/DTD/svg10.dtd">
<svg version="1.0" xmlns="http://www.w3.org/2000/svg"
 width="530.000000pt" height="530.000000pt" viewBox="0 0 530.000000 530.000000"
 preserveAspectRatio="xMidYMid meet">

<g transform="translate(0.000000,530.000000) scale(0.100000,-0.100000)"
fill="#000000" stroke="none">
<path d="M3220 2650 l0 -460 65 0 65 0 0 460 0 460 -65 0 -65 0 0 -460z"/>
<path d="M1360 2750 l0 -241 -25 -24 c-44 -45 -109 -23 -121 40 l-6 35 -99 0
c-114 0 -113 1 -83 -101 32 -107 116 -154 274 -153 100 0 149 15 197 57 69 60
73 80 73 370 l0 257 -105 0 -105 0 0 -240z"/>
<path d="M1730 2655 l0 -335 280 0 280 0 0 80 0 80 -172 2 -173 3 -3 253 -2
252 -105 0 -105 0 0 -335z"/>
<path d="M2290 2910 l0 -79 113 -3 112 -3 3 -252 2 -253 105 0 105 0 2 253 3
252 113 3 112 3 0 79 0 80 -335 0 -335 0 0 -80z"/>
<path d="M4088 2923 c-5 -55 -47 -133 -71 -133 -8 0 -20 12 -27 26 -13 23 -99
94 -115 94 -4 0 5 -14 19 -31 14 -17 26 -37 26 -44 0 -7 3 -20 6 -29 5 -12 -3
-12 -45 5 -61 23 -181 25 -226 4 l-30 -13 30 -1 c40 -2 105 -32 133 -64 l24
-25 -24 -12 c-34 -18 -68 -51 -85 -83 l-14 -29 28 20 c15 11 43 23 61 27 l34
7 -15 -29 c-39 -76 -45 -188 -15 -262 l13 -32 2 44 c2 49 29 111 61 140 20 18
21 18 36 -11 15 -29 82 -92 98 -92 4 0 -1 15 -12 33 -24 39 -27 82 -5 73 105
-40 202 -44 275 -12 l35 15 -55 1 c-38 0 -67 7 -94 23 -46 26 -68 57 -48 64
25 9 83 65 98 94 l14 29 -36 -25 c-44 -30 -80 -34 -69 -7 37 88 41 186 11 257
l-13 30 -5 -52z"/>
</g>
</svg>
