<svg width="108" height="108" viewBox="0 0 108 108" fill="none" xmlns="http://www.w3.org/2000/svg">
<rect width="108" height="108" fill="white"/>
<g opacity="0.5" filter="url(#filter0_d)">
<rect width="100" height="100" transform="translate(4)" fill="#3E04E4"/>
<path d="M33.4483 51.5107V51.5315L33.438 51.5469L32.0538 53.6203C30.8265 55.5782 29.3007 56.0852 27.9953 55.4063C26.6915 54.7282 25.6185 52.8728 25.2845 50.1369L25.2844 50.136L24.9571 47.1573H19.508C19.4474 47.1573 19.3874 47.1573 19.3279 47.1573C17.8386 47.1571 16.7181 47.157 15.8969 47.2813C15.0413 47.4108 14.5241 47.6738 14.2509 48.1936C13.9771 48.7146 13.9394 49.51 14.0796 50.7409C14.2132 51.9143 14.506 53.4673 14.8944 55.5265C14.9125 55.6225 14.9308 55.7196 14.9493 55.8178C15.8335 60.4309 17.4348 63.7447 19.903 65.8963C22.3724 68.0487 25.7144 69.0419 30.0857 68.9987H30.0861C32.8533 68.9987 34.9115 68.6747 36.6087 67.8997C38.305 67.1251 39.643 65.8987 40.9687 64.0889L40.9687 64.0888C41.9238 62.793 42.651 61.7168 43.2065 60.4404C43.7616 59.1647 44.1462 57.6861 44.4121 55.5845C44.9445 51.3776 45 44.6864 45 32.1542V10H39.2241H33.4483V30.6853V51.5107Z" fill="white" stroke="white"/>
</g>
<path d="M78.531 24.5288L79.3936 37.1087L87.7178 36.5378L88.4683 47.4809L80.1441 48.0517L81.7315 71.2005C81.8619 73.1022 82.2957 74.4037 83.0329 75.105C83.7701 75.8062 85.152 76.0873 87.1785 75.9483C88.7373 75.8414 90.0403 75.6581 91.0875 75.3983L91.8604 86.6687C89.0853 87.7674 86.1545 88.4226 83.068 88.6343C77.6432 89.0063 73.5494 88.0027 70.7864 85.6237C68.0234 83.2446 66.4634 79.4519 66.1063 74.2453L64.3842 49.1324L57.9306 49.575L57.1802 38.632L63.6338 38.1894L62.7711 25.6096L78.531 24.5288Z" fill="white"/>
<defs>
<filter id="filter0_d" x="0" y="0" width="108" height="108" filterUnits="userSpaceOnUse" color-interpolation-filters="sRGB">
<feFlood flood-opacity="0" result="BackgroundImageFix"/>
<feColorMatrix in="SourceAlpha" type="matrix" values="0 0 0 0 0 0 0 0 0 0 0 0 0 0 0 0 0 0 127 0"/>
<feOffset dy="4"/>
<feGaussianBlur stdDeviation="2"/>
<feColorMatrix type="matrix" values="0 0 0 0 0 0 0 0 0 0 0 0 0 0 0 0 0 0 0.25 0"/>
<feBlend mode="normal" in2="BackgroundImageFix" result="effect1_dropShadow"/>
<feBlend mode="normal" in="SourceGraphic" in2="effect1_dropShadow" result="shape"/>
</filter>
</defs>
</svg>
