<svg width="102" height="102" viewBox="0 0 102 102" fill="none" xmlns="http://www.w3.org/2000/svg">
<path d="M101.002 87.17C99.4425 76.37 96.6825 69.92 92.6925 60.73C90.4625 55.6 84.5625 48.38 84.0025 42.34C83.4425 36.3 77.5725 31.86 74.4625 27.65C70.9588 22.7826 67.1932 18.109 63.1825 13.65C59.2425 9.39002 56.9025 1 52.1325 1C49.7725 1 46.9025 3.60001 44.5325 4.51001C42.1625 5.42001 38.2625 5.43001 36.2225 7.64001C34.5025 9.49001 31.6225 11.43 31.3125 14.79C31.0625 17.5 30.7625 23.79 29.4225 26.03C27.9625 28.5 27.5925 32.56 26.0225 35.23C24.5282 37.8139 22.7359 40.2137 20.6825 42.38C16.8125 46.57 12.1625 50.22 8.78251 53.87C7.07251 55.73 5.56249 59.92 5.01249 62.56C4.52249 64.86 4.91251 73.24 3.68251 74.56C3.03251 75.27 0.382488 82.94 1.13249 83.76C2.96249 85.76 3.53251 89.53 6.28251 90.59C10.1346 92.0363 14.0762 93.2321 18.0825 94.17C21.5025 95.01 25.4825 97.55 28.7625 97.55C41.8225 97.55 55.0025 101 68.2825 101C74.5625 101 80.2825 97.55 86.1325 97.55C89.2825 97.55 91.7125 96.3 94.5825 95.19C96.5825 94.4 98.2125 89.67 100.153 88.36" stroke="#896B4C" stroke-linecap="round" stroke-linejoin="round"/>
<path d="M46.2404 32.4006V60.6897C46.2404 65.5647 44.0294 68.0022 39.6075 68.0022C38.6544 68.0022 37.7716 67.8616 36.9591 67.5803V64.1116C37.4591 64.2366 38.1154 64.2991 38.9279 64.2991C39.8966 64.2991 40.631 64.0334 41.131 63.5022C41.6466 62.9866 41.9044 62.0803 41.9044 60.7834V32.4006H46.2404ZM41.4591 25.6741C41.4591 24.9866 41.67 24.4006 42.0919 23.9163C42.5294 23.4163 43.1622 23.1663 43.9904 23.1663C44.8341 23.1663 45.4747 23.4084 45.9122 23.8928C46.3497 24.3772 46.5685 24.9709 46.5685 25.6741C46.5685 26.3772 46.3497 26.9631 45.9122 27.4319C45.4747 27.9006 44.8341 28.135 43.9904 28.135C43.1466 28.135 42.5138 27.9006 42.0919 27.4319C41.67 26.9631 41.4591 26.3772 41.4591 25.6741ZM59.131 26.26V32.4006H63.8654V35.7522H59.131V51.4788C59.131 52.4944 59.3419 53.26 59.7638 53.7756C60.1857 54.2756 60.9044 54.5256 61.92 54.5256C62.42 54.5256 63.1075 54.4319 63.9825 54.2444V57.76C62.8419 58.0725 61.7325 58.2288 60.6544 58.2288C58.7169 58.2288 57.256 57.6428 56.2716 56.4709C55.2872 55.2991 54.795 53.635 54.795 51.4788V35.7522H50.1779V32.4006H54.795V26.26H59.131Z" fill="#896B4C"/>
</svg>
