<svg width="176" height="78" viewBox="0 0 176 78" fill="none" xmlns="http://www.w3.org/2000/svg">
<g clip-path="url(#clip0)" filter="url(#filter0_d)">
<rect width="167.606" height="70" transform="translate(4)" fill="white"/>
<g filter="url(#filter1_d)">
<rect width="1697.24" height="700" transform="matrix(0.1 0 0 -0.1 4 70)" fill="#FFF5EE"/>
<path d="M107.978 34.7992V69.5484H111.611H115.245V34.7992V0.050002H111.611H107.978V34.7992Z" fill="black" stroke="black"/>
<path d="M28.8222 38.676V38.6954L28.8091 38.7097L27.046 40.639C25.4827 42.4609 23.5392 42.9326 21.8765 42.3009C20.2158 41.6699 18.849 39.9435 18.4236 37.3977L18.4235 37.3969L18.0066 34.6252H11.0659C10.9886 34.6252 10.9122 34.6252 10.8364 34.6252C8.93939 34.625 7.51224 34.6249 6.46624 34.7405C5.37636 34.861 4.71756 35.1058 4.36961 35.5894C4.02086 36.0742 3.97288 36.8144 4.15137 37.9597C4.32152 39.0516 4.69459 40.4967 5.18925 42.4128C5.2123 42.5021 5.23562 42.5924 5.2592 42.6838C6.38545 46.9763 8.42504 50.0599 11.5689 52.0619C14.7143 54.0648 18.9712 54.9889 24.5392 54.9487H24.5396C28.0644 54.9487 30.686 54.6473 32.8478 53.9261C35.0084 53.2053 36.7127 52.0642 38.4013 50.3801L38.4014 50.38C39.6179 49.1743 40.5442 48.1729 41.2517 46.9852C41.9588 45.7981 42.4487 44.4223 42.7874 42.4667C43.4655 38.5522 43.5362 32.326 43.5362 20.6647V0.0500099H36.1792H28.8222V19.2978V38.676Z" fill="black" stroke="black"/>
<path d="M80.5924 57.7187L80.5921 57.7186L69.2576 57.4903L69.2091 57.4893L69.2086 57.4408L69.0121 38.1826L69.0121 38.1824L68.8814 19.05H62.0517H55.2224V44.5V69.95H73.5173H91.8121V63.9104V57.8702L80.5924 57.7187Z" fill="black" stroke="black"/>
<path d="M123.947 23.1434L126.017 22.2409L126.018 22.2404C127.712 21.4453 130.827 21.0828 134.102 21.1399C137.376 21.197 140.797 21.673 143.1 22.5465C143.895 22.8705 144.531 23.1138 145.03 23.2822C145.529 23.4503 145.896 23.5448 146.153 23.5692C146.282 23.5814 146.387 23.5765 146.468 23.552C146.552 23.527 146.613 23.4808 146.647 23.4117C146.68 23.3445 146.684 23.2627 146.669 23.1726C146.655 23.0826 146.622 22.979 146.574 22.8637C146.347 22.1791 146.123 21.1956 146.123 20.6707C146.123 20.5265 146.062 20.3232 145.96 20.0842C145.857 19.8434 145.709 19.5603 145.529 19.2543C145.167 18.6422 144.673 17.9351 144.142 17.2854C143.612 16.6383 143.178 16.0495 142.914 15.6235C142.782 15.4096 142.695 15.2402 142.659 15.1262C142.641 15.0676 142.639 15.0325 142.643 15.0153C142.645 15.0084 142.647 15.0073 142.647 15.0073C142.648 15.0069 142.652 15.0043 142.664 15.0043C142.731 15.0043 142.821 15.0234 142.934 15.0627C143.046 15.1017 143.176 15.1597 143.323 15.2347C143.616 15.3849 143.972 15.6019 144.37 15.8687C145.165 16.4022 146.122 17.1324 147.073 17.9177C148.024 18.703 148.967 19.5429 149.734 20.2955C150.502 21.0491 151.089 21.711 151.331 22.1423C151.599 22.68 151.962 23.1796 152.335 23.5456C152.522 23.7287 152.712 23.8793 152.896 23.9844C153.078 24.0892 153.258 24.1506 153.421 24.1506C153.662 24.1506 153.92 24.0525 154.186 23.8788C154.453 23.7049 154.731 23.453 155.013 23.1396C155.576 22.5127 156.158 21.6348 156.694 20.6275C157.767 18.6133 158.66 16.0725 158.85 13.9679L159.21 10.1989L160.117 12.3059C160.117 12.306 160.118 12.3061 160.118 12.3062C162.384 17.7027 162.083 25.1579 159.284 31.8557L159.284 31.8562C159.074 32.3756 159.079 32.7666 159.289 33.0137C159.496 33.2587 159.886 33.34 160.387 33.2871C161.393 33.181 162.917 32.5277 164.586 31.3827L164.586 31.3824L167.157 29.586L166.18 31.6235C166.18 31.6237 166.179 31.6239 166.179 31.6241C165.615 32.7217 164.238 34.3362 162.761 35.7644C162.024 36.4779 161.263 37.1435 160.569 37.6732C159.874 38.2036 159.249 38.5951 158.783 38.7639C158.587 38.8329 158.439 38.933 158.339 39.0618C158.239 39.1911 158.19 39.3459 158.189 39.5192C158.186 39.8629 158.369 40.2811 158.703 40.7365C159.371 41.6493 160.666 42.7395 162.411 43.7322C164.466 44.9571 166.672 45.492 169.557 45.4921C169.557 45.4921 169.557 45.4921 169.557 45.4921L173.492 45.564L171.053 46.6157L171.052 46.6158C165.538 49.0477 158.205 48.7462 150.258 45.7005C150.044 45.6125 149.855 45.5859 149.693 45.6181C149.529 45.6506 149.398 45.742 149.299 45.8797C149.104 46.1517 149.034 46.6049 149.072 47.1604C149.148 48.2755 149.663 49.8457 150.575 51.3371M123.947 23.1434L150.618 51.311M123.947 23.1434L125.999 23.2122L125.999 23.2122C127.524 23.2889 129.519 23.9015 131.397 24.7986C133.275 25.6955 135.043 26.8802 136.11 28.1065L137.927 30.0112L137.974 30.06L137.913 30.0904L136.096 31.0045C136.096 31.0046 136.096 31.0047 136.096 31.0048L123.947 23.1434ZM150.575 51.3371L150.618 51.311M150.575 51.3371C150.575 51.337 150.575 51.337 150.575 51.3369L150.618 51.311M150.575 51.3371C150.991 52.021 151.292 52.6466 151.452 53.0997C151.532 53.327 151.575 53.5073 151.58 53.6284C151.583 53.6897 151.576 53.7295 151.565 53.752C151.559 53.7625 151.554 53.7679 151.549 53.7709C151.545 53.7738 151.538 53.7762 151.527 53.7762C151.389 53.7762 151.186 53.7065 150.93 53.5713C150.676 53.4373 150.376 53.2426 150.045 53.001C149.383 52.5179 148.601 51.8501 147.821 51.1127C146.259 49.6361 144.711 47.8881 144.147 46.7911C143.864 46.2392 143.645 45.8222 143.452 45.5301C143.261 45.2399 143.089 45.0615 142.896 45.0035C142.698 44.9445 142.495 45.0148 142.253 45.1754C142.012 45.3363 141.72 45.5964 141.342 45.9385L141.342 45.9386C140.123 47.0502 139.002 48.791 138.167 50.7194C137.332 52.6483 136.781 54.7695 136.704 56.6443M150.618 51.311C151.451 52.6829 151.83 53.8262 151.527 53.8262C150.315 53.8262 145.239 49.0244 144.103 46.814C142.967 44.6036 142.891 44.6036 141.376 45.9756C138.951 48.186 136.906 52.9116 136.754 56.6463M136.704 56.6443L136.705 56.6441L136.754 56.6463M136.704 56.6443L136.563 59.7684M136.704 56.6443L136.754 56.6463M136.754 56.6463L136.608 59.8799L136.563 59.7684M137.891 30.0457L137.844 30.0692L137.855 30.0802L137.891 30.0457ZM137.891 30.0457L137.855 30.0079L137.868 30.0011L137.891 30.0457ZM137.891 35.3811L137.846 35.3582L137.828 35.3941L137.891 35.3811ZM137.891 35.3811L137.901 35.43L137.861 35.4382L137.891 35.3811ZM136.563 59.7684L136.558 59.8885M136.563 59.7684L136.558 59.8885M136.558 59.8885L136.603 60L136.558 59.8885ZM128.618 39.403L128.573 39.4969L128.657 39.4361L128.702 39.3421L128.618 39.403ZM130.664 37.9323C130.664 37.9323 130.664 37.9322 130.664 37.9322L130.665 37.9319L130.694 37.9725L130.664 37.9323ZM136.799 37.6142C136.799 37.6142 136.799 37.6142 136.799 37.6143L136.799 37.6143L136.754 37.5915L136.799 37.6142ZM135.618 57.561L135.664 57.5422L135.664 57.5423L135.618 57.561ZM129.678 37.3091C129.678 37.3094 129.678 37.3096 129.677 37.3099L129.633 37.2866L129.678 37.3082L129.678 37.3091ZM173.613 45.5663L173.724 45.5183L173.603 45.5161L173.613 45.5663Z" fill="#FF3D07" stroke="black"/>
</g>
</g>
<defs>
<filter id="filter0_d" x="0" y="0" width="175.606" height="78" filterUnits="userSpaceOnUse" color-interpolation-filters="sRGB">
<feFlood flood-opacity="0" result="BackgroundImageFix"/>
<feColorMatrix in="SourceAlpha" type="matrix" values="0 0 0 0 0 0 0 0 0 0 0 0 0 0 0 0 0 0 127 0"/>
<feOffset dy="4"/>
<feGaussianBlur stdDeviation="2"/>
<feColorMatrix type="matrix" values="0 0 0 0 0 0 0 0 0 0 0 0 0 0 0 0 0 0 0.25 0"/>
<feBlend mode="normal" in2="BackgroundImageFix" result="effect1_dropShadow"/>
<feBlend mode="normal" in="SourceGraphic" in2="effect1_dropShadow" result="shape"/>
</filter>
<filter id="filter1_d" x="0" y="0" width="177.724" height="78" filterUnits="userSpaceOnUse" color-interpolation-filters="sRGB">
<feFlood flood-opacity="0" result="BackgroundImageFix"/>
<feColorMatrix in="SourceAlpha" type="matrix" values="0 0 0 0 0 0 0 0 0 0 0 0 0 0 0 0 0 0 127 0"/>
<feOffset dy="4"/>
<feGaussianBlur stdDeviation="2"/>
<feColorMatrix type="matrix" values="0 0 0 0 0 0 0 0 0 0 0 0 0 0 0 0 0 0 0.25 0"/>
<feBlend mode="normal" in2="BackgroundImageFix" result="effect1_dropShadow"/>
<feBlend mode="normal" in="SourceGraphic" in2="effect1_dropShadow" result="shape"/>
</filter>
<clipPath id="clip0">
<rect width="167.606" height="70" fill="white" transform="translate(4)"/>
</clipPath>
</defs>
</svg>
