<svg width="168" height="70" viewBox="0 0 168 70" fill="none" xmlns="http://www.w3.org/2000/svg">
<g id="Logo-JLT 1" clip-path="url(#clip0)">
<rect width="167.606" height="70" fill="white"/>
<g id="Group" filter="url(#filter0_d)">
<path id="Vector" d="M103.978 34.7992V69.5484H107.611H111.245V34.7992V0.050002H107.611H103.978V34.7992Z" fill="black" stroke="black"/>
<path id="Vector_2" d="M24.8222 38.676V38.6954L24.8091 38.7097L23.046 40.639C21.4827 42.4609 19.5392 42.9326 17.8765 42.3009C16.2158 41.6699 14.849 39.9435 14.4236 37.3977L14.4235 37.3969L14.0066 34.6252H7.06588C6.98864 34.6252 6.91216 34.6252 6.83643 34.6252C4.93939 34.625 3.51224 34.6249 2.46624 34.7405C1.37636 34.861 0.717561 35.1058 0.36961 35.5894C0.0208601 36.0742 -0.0271221 36.8144 0.151365 37.9597C0.321517 39.0516 0.694592 40.4967 1.18925 42.4128C1.2123 42.5021 1.23562 42.5924 1.2592 42.6838C2.38545 46.9763 4.42504 50.0599 7.5689 52.0619C10.7143 54.0648 14.9712 54.9889 20.5392 54.9487H20.5396C24.0644 54.9487 26.686 54.6473 28.8478 53.9261C31.0084 53.2053 32.7127 52.0642 34.4013 50.3801L34.4014 50.38C35.6179 49.1743 36.5442 48.1729 37.2517 46.9852C37.9588 45.7981 38.4487 44.4223 38.7874 42.4667C39.4655 38.5522 39.5362 32.326 39.5362 20.6647V0.0500099H32.1792H24.8222V19.2978V38.676Z" fill="black" stroke="black"/>
<path id="Vector_3" d="M76.5924 57.7187L76.5921 57.7186L65.2576 57.4903L65.2091 57.4893L65.2086 57.4408L65.0121 38.1826L65.0121 38.1824L64.8814 19.05H58.0517H51.2224V44.5V69.95H69.5173H87.8121V63.9104V57.8702L76.5924 57.7187Z" fill="black" stroke="black"/>
<path id="Vector_4" d="M119.947 23.1434L122.017 22.2409L122.018 22.2404C123.712 21.4453 126.827 21.0828 130.102 21.1399C133.376 21.197 136.797 21.673 139.1 22.5465C139.895 22.8705 140.531 23.1138 141.03 23.2822C141.529 23.4503 141.896 23.5448 142.153 23.5692C142.282 23.5814 142.387 23.5765 142.468 23.552C142.552 23.527 142.613 23.4808 142.647 23.4117C142.68 23.3445 142.684 23.2627 142.669 23.1726C142.655 23.0826 142.622 22.979 142.574 22.8637C142.347 22.1791 142.123 21.1956 142.123 20.6707C142.123 20.5265 142.062 20.3232 141.96 20.0842C141.857 19.8434 141.709 19.5603 141.529 19.2543C141.167 18.6422 140.673 17.9351 140.142 17.2854C139.612 16.6383 139.178 16.0495 138.914 15.6235C138.782 15.4096 138.695 15.2402 138.659 15.1262C138.641 15.0676 138.639 15.0325 138.643 15.0153C138.645 15.0084 138.647 15.0073 138.647 15.0073C138.648 15.0069 138.652 15.0043 138.664 15.0043C138.731 15.0043 138.821 15.0234 138.934 15.0627C139.046 15.1017 139.176 15.1597 139.323 15.2347C139.616 15.3849 139.972 15.6019 140.37 15.8687C141.165 16.4022 142.122 17.1324 143.073 17.9177C144.024 18.703 144.967 19.5429 145.734 20.2955C146.502 21.0491 147.089 21.711 147.331 22.1423C147.599 22.68 147.962 23.1796 148.335 23.5456C148.522 23.7287 148.712 23.8793 148.896 23.9844C149.078 24.0892 149.258 24.1506 149.421 24.1506C149.662 24.1506 149.92 24.0525 150.186 23.8788C150.453 23.7049 150.731 23.453 151.013 23.1396C151.576 22.5127 152.158 21.6348 152.694 20.6275C153.767 18.6133 154.66 16.0725 154.85 13.9679L155.21 10.1989L156.117 12.3059C156.117 12.306 156.118 12.3061 156.118 12.3062C158.384 17.7027 158.083 25.1579 155.284 31.8557L155.284 31.8562C155.074 32.3756 155.079 32.7666 155.289 33.0137C155.496 33.2587 155.886 33.34 156.387 33.2871C157.393 33.181 158.917 32.5277 160.586 31.3827L160.586 31.3824L163.157 29.586L162.18 31.6235C162.18 31.6237 162.179 31.6239 162.179 31.6241C161.615 32.7217 160.238 34.3362 158.761 35.7644C158.024 36.4779 157.263 37.1435 156.569 37.6732C155.874 38.2036 155.249 38.5951 154.783 38.7639C154.587 38.8329 154.439 38.933 154.339 39.0618C154.239 39.1911 154.19 39.3459 154.189 39.5192C154.186 39.8629 154.369 40.2811 154.703 40.7365C155.371 41.6493 156.666 42.7395 158.411 43.7322C160.466 44.9571 162.672 45.492 165.557 45.4921C165.557 45.4921 165.557 45.4921 165.557 45.4921L169.492 45.564L167.053 46.6157L167.052 46.6158C161.538 49.0477 154.205 48.7462 146.258 45.7005C146.044 45.6125 145.855 45.5859 145.693 45.6181C145.529 45.6506 145.398 45.742 145.299 45.8797C145.104 46.1517 145.034 46.6049 145.072 47.1604C145.148 48.2755 145.663 49.8457 146.575 51.3371M119.947 23.1434L146.618 51.311M119.947 23.1434L121.999 23.2122L121.999 23.2122C123.524 23.2889 125.519 23.9015 127.397 24.7986C129.275 25.6955 131.043 26.8802 132.11 28.1065L133.927 30.0112L133.974 30.06L133.913 30.0904L132.096 31.0045C132.096 31.0046 132.096 31.0047 132.096 31.0048L119.947 23.1434ZM146.575 51.3371L146.618 51.311M146.575 51.3371C146.575 51.337 146.575 51.337 146.575 51.3369L146.618 51.311M146.575 51.3371C146.991 52.021 147.292 52.6466 147.452 53.0997C147.532 53.327 147.575 53.5073 147.58 53.6284C147.583 53.6897 147.576 53.7295 147.565 53.752C147.559 53.7625 147.554 53.7679 147.549 53.7709C147.545 53.7738 147.538 53.7762 147.527 53.7762C147.389 53.7762 147.186 53.7065 146.93 53.5713C146.676 53.4373 146.376 53.2426 146.045 53.001C145.383 52.5179 144.601 51.8501 143.821 51.1127C142.259 49.6361 140.711 47.8881 140.147 46.7911C139.864 46.2392 139.645 45.8222 139.452 45.5301C139.261 45.2399 139.089 45.0615 138.896 45.0035C138.698 44.9445 138.495 45.0148 138.253 45.1754C138.012 45.3363 137.72 45.5964 137.342 45.9385L137.342 45.9386C136.123 47.0502 135.002 48.791 134.167 50.7194C133.332 52.6483 132.781 54.7695 132.704 56.6443M146.618 51.311C147.451 52.6829 147.83 53.8262 147.527 53.8262C146.315 53.8262 141.239 49.0244 140.103 46.814C138.967 44.6036 138.891 44.6036 137.376 45.9756C134.951 48.186 132.906 52.9116 132.754 56.6463M132.704 56.6443L132.705 56.6441L132.754 56.6463M132.704 56.6443L132.563 59.7684M132.704 56.6443L132.754 56.6463M132.754 56.6463L132.608 59.8799L132.563 59.7684M133.891 30.0457L133.844 30.0692L133.855 30.0802L133.891 30.0457ZM133.891 30.0457L133.855 30.0079L133.868 30.0011L133.891 30.0457ZM133.891 35.3811L133.846 35.3582L133.828 35.3941L133.891 35.3811ZM133.891 35.3811L133.901 35.43L133.861 35.4382L133.891 35.3811ZM132.563 59.7684L132.558 59.8885M132.563 59.7684L132.558 59.8885M132.558 59.8885L132.603 60L132.558 59.8885ZM124.618 39.403L124.573 39.4969L124.657 39.4361L124.702 39.3421L124.618 39.403ZM126.664 37.9323C126.664 37.9323 126.664 37.9322 126.664 37.9322L126.665 37.9319L126.694 37.9725L126.664 37.9323ZM132.799 37.6142C132.799 37.6142 132.799 37.6142 132.799 37.6143L132.799 37.6143L132.754 37.5915L132.799 37.6142ZM131.618 57.561L131.664 57.5422L131.664 57.5423L131.618 57.561ZM125.678 37.3091C125.678 37.3094 125.678 37.3096 125.677 37.3099L125.633 37.2866L125.678 37.3082L125.678 37.3091ZM169.613 45.5663L169.724 45.5183L169.603 45.5161L169.613 45.5663Z" fill="#FF3D07" stroke="black"/>
</g>
</g>
<defs>
<filter id="filter0_d" x="-4" y="0" width="177.724" height="78" filterUnits="userSpaceOnUse" color-interpolation-filters="sRGB">
<feFlood flood-opacity="0" result="BackgroundImageFix"/>
<feColorMatrix in="SourceAlpha" type="matrix" values="0 0 0 0 0 0 0 0 0 0 0 0 0 0 0 0 0 0 127 0"/>
<feOffset dy="4"/>
<feGaussianBlur stdDeviation="2"/>
<feColorMatrix type="matrix" values="0 0 0 0 0 0 0 0 0 0 0 0 0 0 0 0 0 0 0.25 0"/>
<feBlend mode="normal" in2="BackgroundImageFix" result="effect1_dropShadow"/>
<feBlend mode="normal" in="SourceGraphic" in2="effect1_dropShadow" result="shape"/>
</filter>
<clipPath id="clip0">
<rect width="167.606" height="70" fill="white"/>
</clipPath>
</defs>
</svg>
