<svg width="30" height="30" viewBox="0 0 30 30" fill="none" xmlns="http://www.w3.org/2000/svg">
<rect width="30" height="30" fill="#F5F5F5"/>
<g clip-path="url(#clip0)">
<path d="M16.6088 14.985C16.6088 19.2509 13.174 22.7092 8.93725 22.7092C4.7005 22.7092 1.26549 19.2509 1.26549 14.985C1.26549 10.7191 4.70024 7.26059 8.93725 7.26059C13.1743 7.26059 16.6088 10.7191 16.6088 14.985Z" fill="black"/>
<path d="M25.0247 14.985C25.0247 19.0005 23.3073 22.257 21.1888 22.257C19.0703 22.257 17.3529 19.0005 17.3529 14.985C17.3529 10.9696 19.07 7.71309 21.1885 7.71309C23.307 7.71309 25.0244 10.9685 25.0244 14.985" fill="black"/>
<path d="M28.467 14.985C28.467 18.5818 27.8631 21.4995 27.1179 21.4995C26.3728 21.4995 25.7691 18.5826 25.7691 14.985C25.7691 11.3873 26.373 8.47046 27.1179 8.47046C27.8629 8.47046 28.467 11.3871 28.467 14.985Z" fill="black"/>
</g>
<defs>
<clipPath id="clip0">
<rect width="30" height="30" fill="white"/>
</clipPath>
</defs>
</svg>
